<?xml version="1.0" encoding="UTF-8" standalone="no"?>
<svg width="22px" height="23px" viewBox="0 0 22 23" version="1.1" xmlns="http://www.w3.org/2000/svg" xmlns:xlink="http://www.w3.org/1999/xlink">
    <!-- Generator: Sketch 42 (36781) - http://www.bohemiancoding.com/sketch -->
    <title>Group 14</title>
    <desc>Created with Sketch.</desc>
    <defs></defs>
    <g id="Style-guide" stroke="none" stroke-width="1" fill="none" fill-rule="evenodd">
        <g id="Desktop-Copy-2" transform="translate(-537.000000, -2563.000000)" fill-rule="nonzero" fill="#000000">
            <g id="Group-14" transform="translate(537.000000, 2563.000000)">
                <path d="M10.9057143,0.427090796 C4.89230612,0.427090796 0,5.31939692 0,11.3328051 C0,17.3462132 4.89230612,22.2385194 10.9057143,22.2385194 C16.9191224,22.2385194 21.8114286,17.3462132 21.8114286,11.3328051 C21.8114286,5.31939692 16.9191224,0.427090796 10.9057143,0.427090796 Z M10.9057143,19.9179683 C6.17189796,19.9179683 2.32032653,16.0668459 2.32032653,11.3328051 C2.32032653,6.59876427 6.17189796,2.74764182 10.9057143,2.74764182 C15.6395306,2.74764182 19.491102,6.59876427 19.491102,11.3328051 C19.491102,16.0668459 15.6395306,19.9179683 10.9057143,19.9179683 Z" id="Shape"></path>
                <path d="M16.5893469,10.9960704 L11.6882857,10.9960704 L11.6882857,5.10321324 C11.6882857,4.60731529 11.2862245,4.20525406 10.7903265,4.20525406 C10.2944286,4.20525406 9.89236735,4.60731529 9.89236735,5.10321324 L9.89236735,11.8940296 C9.89236735,12.3899275 10.2944286,12.7919888 10.7903265,12.7919888 L16.5893469,12.7919888 C17.0852449,12.7919888 17.4873061,12.3899275 17.4873061,11.8940296 C17.4873061,11.3981316 17.0852449,10.9960704 16.5893469,10.9960704 Z" id="Shape"></path>
            </g>
        </g>
    </g>
</svg>