<?xml version="1.0" encoding="UTF-8" standalone="no"?>
<svg width="34px" height="35px" viewBox="0 0 34 35" version="1.1" xmlns="http://www.w3.org/2000/svg" xmlns:xlink="http://www.w3.org/1999/xlink">
    <!-- Generator: Sketch 42 (36781) - http://www.bohemiancoding.com/sketch -->
    <title>Group 7</title>
    <desc>Created with Sketch.</desc>
    <defs>
        <path d="M6.47637676,30.3520504 L30.3520504,6.47637676 C32.6365927,9.37096211 34,13.0262606 34,17 C34,26.3888407 26.3888407,34 17,34 C13.0262606,34 9.37096211,32.6365927 6.47637676,30.3520504 Z M3.64794963,27.5236232 C1.36340732,24.6290379 0,20.9737394 0,17 C0,7.61115925 7.61115925,0 17,0 C20.9737394,0 24.6290379,1.36340732 27.5236232,3.64794963 L3.64794963,27.5236232 Z" id="path-1"></path>
        <mask id="mask-2" maskContentUnits="userSpaceOnUse" maskUnits="objectBoundingBox" x="0" y="0" width="34" height="34" fill="white">
            <use xlink:href="#path-1"></use>
        </mask>
        <circle id="path-3" cx="17" cy="17" r="17"></circle>
        <mask id="mask-4" maskContentUnits="userSpaceOnUse" maskUnits="objectBoundingBox" x="0" y="0" width="34" height="34" fill="white">
            <use xlink:href="#path-3"></use>
        </mask>
    </defs>
    <g id="Infographics" stroke="none" stroke-width="1" fill="none" fill-rule="evenodd">
        <g id="Paracetamol" transform="translate(-677.000000, -3422.000000)" stroke="#000000">
            <g id="Group-17" transform="translate(517.000000, 3248.000000)">
                <g id="Group-16-Copy" transform="translate(0.000000, 0.720000)">
                    <g id="Group-12" transform="translate(143.000000, 174.000000)">
                        <g id="Group-10-Copy" transform="translate(9.000000, 0.000000)">
                            <g id="Group-9">
                                <g id="Group-7" transform="translate(8.000000, 0.000000)">
                                    <g id="Group-8">
                                        <use id="Combined-Shape" mask="url(#mask-2)" stroke-width="2" fill="#000000" xlink:href="#path-1"></use>
                                        <use id="Oval" mask="url(#mask-4)" stroke-width="4" xlink:href="#path-3"></use>
                                    </g>
                                </g>
                            </g>
                        </g>
                    </g>
                </g>
            </g>
        </g>
    </g>
</svg>